ISO-10303-21;
HEADER;
/* Generated by software containing ST-Developer
 * from STEP Tools, Inc. (www.steptools.com) 
 */

FILE_DESCRIPTION(
/* description */ (''),
/* implementation_level */ '2;1');

FILE_NAME(
/* name */ 'base_cover_back(F).step',
/* time_stamp */ '2026-03-19T01:15:52+05:30',
/* author */ (''),
/* organization */ (''),
/* preprocessor_version */ 'ST-DEVELOPER v20.1',
/* originating_system */ 'Autodesk Translation Framework v14.24.0.0',
/* authorisation */ '');

FILE_SCHEMA (('AUTOMOTIVE_DESIGN { 1 0 10303 214 3 1 1 }'));
ENDSEC;

DATA;
#10=MECHANICAL_DESIGN_GEOMETRIC_PRESENTATION_REPRESENTATION('',(#13),#437);
#11=SHAPE_REPRESENTATION_RELATIONSHIP('SRR','None',#444,#12);
#12=ADVANCED_BREP_SHAPE_REPRESENTATION('',(#14),#436);
#13=STYLED_ITEM('',(#453),#14);
#14=MANIFOLD_SOLID_BREP('Body1',#262);
#15=CYLINDRICAL_SURFACE('',#280,1.4);
#16=CYLINDRICAL_SURFACE('',#282,1.4);
#17=CYLINDRICAL_SURFACE('',#290,1.4);
#18=FACE_BOUND('',#42,.T.);
#19=FACE_BOUND('',#43,.T.);
#20=FACE_BOUND('',#56,.T.);
#21=FACE_BOUND('',#57,.T.);
#22=CIRCLE('',#277,1.4);
#23=CIRCLE('',#278,1.4);
#24=CIRCLE('',#279,1.4);
#25=CIRCLE('',#281,1.4);
#26=CIRCLE('',#283,1.4);
#27=CIRCLE('',#291,1.4);
#28=FACE_OUTER_BOUND('',#41,.T.);
#29=FACE_OUTER_BOUND('',#44,.T.);
#30=FACE_OUTER_BOUND('',#45,.T.);
#31=FACE_OUTER_BOUND('',#46,.T.);
#32=FACE_OUTER_BOUND('',#47,.T.);
#33=FACE_OUTER_BOUND('',#48,.T.);
#34=FACE_OUTER_BOUND('',#49,.T.);
#35=FACE_OUTER_BOUND('',#50,.T.);
#36=FACE_OUTER_BOUND('',#51,.T.);
#37=FACE_OUTER_BOUND('',#52,.T.);
#38=FACE_OUTER_BOUND('',#53,.T.);
#39=FACE_OUTER_BOUND('',#54,.T.);
#40=FACE_OUTER_BOUND('',#55,.T.);
#41=EDGE_LOOP('',(#171,#172,#173,#174));
#42=EDGE_LOOP('',(#175));
#43=EDGE_LOOP('',(#176,#177,#178,#179,#180,#181));
#44=EDGE_LOOP('',(#182,#183,#184,#185));
#45=EDGE_LOOP('',(#186,#187,#188,#189));
#46=EDGE_LOOP('',(#190,#191,#192,#193));
#47=EDGE_LOOP('',(#194,#195,#196,#197,#198));
#48=EDGE_LOOP('',(#199,#200,#201,#202));
#49=EDGE_LOOP('',(#203,#204,#205,#206));
#50=EDGE_LOOP('',(#207,#208,#209,#210));
#51=EDGE_LOOP('',(#211,#212,#213,#214));
#52=EDGE_LOOP('',(#215,#216,#217,#218,#219));
#53=EDGE_LOOP('',(#220,#221,#222,#223));
#54=EDGE_LOOP('',(#224,#225,#226,#227));
#55=EDGE_LOOP('',(#228,#229,#230,#231));
#56=EDGE_LOOP('',(#232));
#57=EDGE_LOOP('',(#233,#234,#235,#236,#237,#238));
#58=LINE('',#367,#86);
#59=LINE('',#369,#87);
#60=LINE('',#371,#88);
#61=LINE('',#372,#89);
#62=LINE('',#377,#90);
#63=LINE('',#379,#91);
#64=LINE('',#383,#92);
#65=LINE('',#385,#93);
#66=LINE('',#389,#94);
#67=LINE('',#393,#95);
#68=LINE('',#396,#96);
#69=LINE('',#399,#97);
#70=LINE('',#400,#98);
#71=LINE('',#404,#99);
#72=LINE('',#405,#100);
#73=LINE('',#406,#101);
#74=LINE('',#409,#102);
#75=LINE('',#411,#103);
#76=LINE('',#412,#104);
#77=LINE('',#415,#105);
#78=LINE('',#416,#106);
#79=LINE('',#419,#107);
#80=LINE('',#421,#108);
#81=LINE('',#422,#109);
#82=LINE('',#424,#110);
#83=LINE('',#429,#111);
#84=LINE('',#430,#112);
#85=LINE('',#432,#113);
#86=VECTOR('',#299,10.);
#87=VECTOR('',#300,10.);
#88=VECTOR('',#301,10.);
#89=VECTOR('',#302,10.);
#90=VECTOR('',#305,10.);
#91=VECTOR('',#306,10.);
#92=VECTOR('',#309,10.);
#93=VECTOR('',#310,10.);
#94=VECTOR('',#315,1.4);
#95=VECTOR('',#320,10.);
#96=VECTOR('',#323,10.);
#97=VECTOR('',#326,10.);
#98=VECTOR('',#327,10.);
#99=VECTOR('',#330,10.);
#100=VECTOR('',#331,10.);
#101=VECTOR('',#332,10.);
#102=VECTOR('',#335,10.);
#103=VECTOR('',#336,10.);
#104=VECTOR('',#337,10.);
#105=VECTOR('',#340,10.);
#106=VECTOR('',#341,10.);
#107=VECTOR('',#344,10.);
#108=VECTOR('',#345,10.);
#109=VECTOR('',#346,10.);
#110=VECTOR('',#349,10.);
#111=VECTOR('',#356,10.);
#112=VECTOR('',#357,10.);
#113=VECTOR('',#360,10.);
#114=VERTEX_POINT('',#365);
#115=VERTEX_POINT('',#366);
#116=VERTEX_POINT('',#368);
#117=VERTEX_POINT('',#370);
#118=VERTEX_POINT('',#373);
#119=VERTEX_POINT('',#375);
#120=VERTEX_POINT('',#376);
#121=VERTEX_POINT('',#378);
#122=VERTEX_POINT('',#380);
#123=VERTEX_POINT('',#382);
#124=VERTEX_POINT('',#384);
#125=VERTEX_POINT('',#388);
#126=VERTEX_POINT('',#392);
#127=VERTEX_POINT('',#394);
#128=VERTEX_POINT('',#398);
#129=VERTEX_POINT('',#402);
#130=VERTEX_POINT('',#403);
#131=VERTEX_POINT('',#408);
#132=VERTEX_POINT('',#410);
#133=VERTEX_POINT('',#414);
#134=VERTEX_POINT('',#418);
#135=VERTEX_POINT('',#420);
#136=VERTEX_POINT('',#428);
#137=EDGE_CURVE('',#114,#115,#58,.T.);
#138=EDGE_CURVE('',#115,#116,#59,.T.);
#139=EDGE_CURVE('',#116,#117,#60,.T.);
#140=EDGE_CURVE('',#117,#114,#61,.T.);
#141=EDGE_CURVE('',#118,#118,#22,.T.);
#142=EDGE_CURVE('',#119,#120,#62,.T.);
#143=EDGE_CURVE('',#120,#121,#63,.T.);
#144=EDGE_CURVE('',#121,#122,#23,.T.);
#145=EDGE_CURVE('',#122,#123,#64,.T.);
#146=EDGE_CURVE('',#123,#124,#65,.T.);
#147=EDGE_CURVE('',#124,#119,#24,.T.);
#148=EDGE_CURVE('',#118,#125,#66,.T.);
#149=EDGE_CURVE('',#125,#125,#25,.T.);
#150=EDGE_CURVE('',#126,#121,#67,.T.);
#151=EDGE_CURVE('',#127,#126,#26,.T.);
#152=EDGE_CURVE('',#127,#122,#68,.T.);
#153=EDGE_CURVE('',#120,#128,#69,.T.);
#154=EDGE_CURVE('',#126,#128,#70,.T.);
#155=EDGE_CURVE('',#129,#130,#71,.T.);
#156=EDGE_CURVE('',#128,#129,#72,.T.);
#157=EDGE_CURVE('',#130,#119,#73,.T.);
#158=EDGE_CURVE('',#131,#117,#74,.T.);
#159=EDGE_CURVE('',#132,#131,#75,.T.);
#160=EDGE_CURVE('',#132,#114,#76,.T.);
#161=EDGE_CURVE('',#133,#116,#77,.T.);
#162=EDGE_CURVE('',#131,#133,#78,.T.);
#163=EDGE_CURVE('',#134,#123,#79,.T.);
#164=EDGE_CURVE('',#135,#134,#80,.T.);
#165=EDGE_CURVE('',#124,#135,#81,.T.);
#166=EDGE_CURVE('',#134,#127,#82,.T.);
#167=EDGE_CURVE('',#129,#135,#27,.T.);
#168=EDGE_CURVE('',#136,#132,#83,.T.);
#169=EDGE_CURVE('',#136,#115,#84,.T.);
#170=EDGE_CURVE('',#133,#136,#85,.T.);
#171=ORIENTED_EDGE('',*,*,#137,.T.);
#172=ORIENTED_EDGE('',*,*,#138,.T.);
#173=ORIENTED_EDGE('',*,*,#139,.T.);
#174=ORIENTED_EDGE('',*,*,#140,.T.);
#175=ORIENTED_EDGE('',*,*,#141,.T.);
#176=ORIENTED_EDGE('',*,*,#142,.T.);
#177=ORIENTED_EDGE('',*,*,#143,.T.);
#178=ORIENTED_EDGE('',*,*,#144,.T.);
#179=ORIENTED_EDGE('',*,*,#145,.T.);
#180=ORIENTED_EDGE('',*,*,#146,.T.);
#181=ORIENTED_EDGE('',*,*,#147,.T.);
#182=ORIENTED_EDGE('',*,*,#141,.F.);
#183=ORIENTED_EDGE('',*,*,#148,.T.);
#184=ORIENTED_EDGE('',*,*,#149,.F.);
#185=ORIENTED_EDGE('',*,*,#148,.F.);
#186=ORIENTED_EDGE('',*,*,#150,.F.);
#187=ORIENTED_EDGE('',*,*,#151,.F.);
#188=ORIENTED_EDGE('',*,*,#152,.T.);
#189=ORIENTED_EDGE('',*,*,#144,.F.);
#190=ORIENTED_EDGE('',*,*,#153,.T.);
#191=ORIENTED_EDGE('',*,*,#154,.F.);
#192=ORIENTED_EDGE('',*,*,#150,.T.);
#193=ORIENTED_EDGE('',*,*,#143,.F.);
#194=ORIENTED_EDGE('',*,*,#155,.F.);
#195=ORIENTED_EDGE('',*,*,#156,.F.);
#196=ORIENTED_EDGE('',*,*,#153,.F.);
#197=ORIENTED_EDGE('',*,*,#142,.F.);
#198=ORIENTED_EDGE('',*,*,#157,.F.);
#199=ORIENTED_EDGE('',*,*,#158,.F.);
#200=ORIENTED_EDGE('',*,*,#159,.F.);
#201=ORIENTED_EDGE('',*,*,#160,.T.);
#202=ORIENTED_EDGE('',*,*,#140,.F.);
#203=ORIENTED_EDGE('',*,*,#161,.F.);
#204=ORIENTED_EDGE('',*,*,#162,.F.);
#205=ORIENTED_EDGE('',*,*,#158,.T.);
#206=ORIENTED_EDGE('',*,*,#139,.F.);
#207=ORIENTED_EDGE('',*,*,#163,.F.);
#208=ORIENTED_EDGE('',*,*,#164,.F.);
#209=ORIENTED_EDGE('',*,*,#165,.F.);
#210=ORIENTED_EDGE('',*,*,#146,.F.);
#211=ORIENTED_EDGE('',*,*,#152,.F.);
#212=ORIENTED_EDGE('',*,*,#166,.F.);
#213=ORIENTED_EDGE('',*,*,#163,.T.);
#214=ORIENTED_EDGE('',*,*,#145,.F.);
#215=ORIENTED_EDGE('',*,*,#165,.T.);
#216=ORIENTED_EDGE('',*,*,#167,.F.);
#217=ORIENTED_EDGE('',*,*,#155,.T.);
#218=ORIENTED_EDGE('',*,*,#157,.T.);
#219=ORIENTED_EDGE('',*,*,#147,.F.);
#220=ORIENTED_EDGE('',*,*,#160,.F.);
#221=ORIENTED_EDGE('',*,*,#168,.F.);
#222=ORIENTED_EDGE('',*,*,#169,.T.);
#223=ORIENTED_EDGE('',*,*,#137,.F.);
#224=ORIENTED_EDGE('',*,*,#169,.F.);
#225=ORIENTED_EDGE('',*,*,#170,.F.);
#226=ORIENTED_EDGE('',*,*,#161,.T.);
#227=ORIENTED_EDGE('',*,*,#138,.F.);
#228=ORIENTED_EDGE('',*,*,#168,.T.);
#229=ORIENTED_EDGE('',*,*,#159,.T.);
#230=ORIENTED_EDGE('',*,*,#162,.T.);
#231=ORIENTED_EDGE('',*,*,#170,.T.);
#232=ORIENTED_EDGE('',*,*,#149,.T.);
#233=ORIENTED_EDGE('',*,*,#156,.T.);
#234=ORIENTED_EDGE('',*,*,#167,.T.);
#235=ORIENTED_EDGE('',*,*,#164,.T.);
#236=ORIENTED_EDGE('',*,*,#166,.T.);
#237=ORIENTED_EDGE('',*,*,#151,.T.);
#238=ORIENTED_EDGE('',*,*,#154,.T.);
#239=PLANE('',#276);
#240=PLANE('',#284);
#241=PLANE('',#285);
#242=PLANE('',#286);
#243=PLANE('',#287);
#244=PLANE('',#288);
#245=PLANE('',#289);
#246=PLANE('',#292);
#247=PLANE('',#293);
#248=PLANE('',#294);
#249=ADVANCED_FACE('',(#28,#18,#19),#239,.F.);
#250=ADVANCED_FACE('',(#29),#15,.F.);
#251=ADVANCED_FACE('',(#30),#16,.F.);
#252=ADVANCED_FACE('',(#31),#240,.F.);
#253=ADVANCED_FACE('',(#32),#241,.F.);
#254=ADVANCED_FACE('',(#33),#242,.T.);
#255=ADVANCED_FACE('',(#34),#243,.T.);
#256=ADVANCED_FACE('',(#35),#244,.F.);
#257=ADVANCED_FACE('',(#36),#245,.F.);
#258=ADVANCED_FACE('',(#37),#17,.F.);
#259=ADVANCED_FACE('',(#38),#246,.T.);
#260=ADVANCED_FACE('',(#39),#247,.T.);
#261=ADVANCED_FACE('',(#40,#20,#21),#248,.F.);
#262=CLOSED_SHELL('',(#249,#250,#251,#252,#253,#254,#255,#256,#257,#258,
#259,#260,#261));
#263=DERIVED_UNIT_ELEMENT(#265,1.);
#264=DERIVED_UNIT_ELEMENT(#439,-3.);
#265=(
MASS_UNIT()
NAMED_UNIT(*)
SI_UNIT(.KILO.,.GRAM.)
);
#266=DERIVED_UNIT((#263,#264));
#267=MEASURE_REPRESENTATION_ITEM('density measure',
POSITIVE_RATIO_MEASURE(7850.),#266);
#268=PROPERTY_DEFINITION_REPRESENTATION(#273,#270);
#269=PROPERTY_DEFINITION_REPRESENTATION(#274,#271);
#270=REPRESENTATION('material name',(#272),#436);
#271=REPRESENTATION('density',(#267),#436);
#272=DESCRIPTIVE_REPRESENTATION_ITEM('Steel','Steel');
#273=PROPERTY_DEFINITION('material property','material name',#446);
#274=PROPERTY_DEFINITION('material property','density of part',#446);
#275=AXIS2_PLACEMENT_3D('',#363,#295,#296);
#276=AXIS2_PLACEMENT_3D('',#364,#297,#298);
#277=AXIS2_PLACEMENT_3D('',#374,#303,#304);
#278=AXIS2_PLACEMENT_3D('',#381,#307,#308);
#279=AXIS2_PLACEMENT_3D('',#386,#311,#312);
#280=AXIS2_PLACEMENT_3D('',#387,#313,#314);
#281=AXIS2_PLACEMENT_3D('',#390,#316,#317);
#282=AXIS2_PLACEMENT_3D('',#391,#318,#319);
#283=AXIS2_PLACEMENT_3D('',#395,#321,#322);
#284=AXIS2_PLACEMENT_3D('',#397,#324,#325);
#285=AXIS2_PLACEMENT_3D('',#401,#328,#329);
#286=AXIS2_PLACEMENT_3D('',#407,#333,#334);
#287=AXIS2_PLACEMENT_3D('',#413,#338,#339);
#288=AXIS2_PLACEMENT_3D('',#417,#342,#343);
#289=AXIS2_PLACEMENT_3D('',#423,#347,#348);
#290=AXIS2_PLACEMENT_3D('',#425,#350,#351);
#291=AXIS2_PLACEMENT_3D('',#426,#352,#353);
#292=AXIS2_PLACEMENT_3D('',#427,#354,#355);
#293=AXIS2_PLACEMENT_3D('',#431,#358,#359);
#294=AXIS2_PLACEMENT_3D('',#433,#361,#362);
#295=DIRECTION('axis',(0.,0.,1.));
#296=DIRECTION('refdir',(1.,0.,0.));
#297=DIRECTION('center_axis',(0.,0.,-1.));
#298=DIRECTION('ref_axis',(-1.,0.,0.));
#299=DIRECTION('',(0.,1.,0.));
#300=DIRECTION('',(-1.,0.,0.));
#301=DIRECTION('',(0.,-1.,0.));
#302=DIRECTION('',(1.,0.,0.));
#303=DIRECTION('center_axis',(0.,0.,-1.));
#304=DIRECTION('ref_axis',(-1.,0.,0.));
#305=DIRECTION('',(-1.,0.,0.));
#306=DIRECTION('',(0.,1.,0.));
#307=DIRECTION('center_axis',(0.,0.,-1.));
#308=DIRECTION('ref_axis',(-1.,-3.1641356201817E-15,0.));
#309=DIRECTION('',(1.,0.,0.));
#310=DIRECTION('',(0.,-1.,0.));
#311=DIRECTION('center_axis',(0.,0.,-1.));
#312=DIRECTION('ref_axis',(-1.,-3.1641356201817E-15,0.));
#313=DIRECTION('center_axis',(0.,0.,-1.));
#314=DIRECTION('ref_axis',(-1.,0.,0.));
#315=DIRECTION('',(0.,0.,-1.));
#316=DIRECTION('center_axis',(0.,0.,1.));
#317=DIRECTION('ref_axis',(-1.,0.,0.));
#318=DIRECTION('center_axis',(0.,0.,1.));
#319=DIRECTION('ref_axis',(-1.,-3.1641356201817E-15,0.));
#320=DIRECTION('',(0.,0.,1.));
#321=DIRECTION('center_axis',(0.,0.,1.));
#322=DIRECTION('ref_axis',(-1.,-3.1641356201817E-15,0.));
#323=DIRECTION('',(0.,0.,1.));
#324=DIRECTION('center_axis',(-1.,0.,0.));
#325=DIRECTION('ref_axis',(0.,0.,-1.));
#326=DIRECTION('',(0.,0.,-1.));
#327=DIRECTION('',(0.,-1.,0.));
#328=DIRECTION('center_axis',(0.,-1.,0.));
#329=DIRECTION('ref_axis',(0.,0.,-1.));
#330=DIRECTION('',(0.,0.,1.));
#331=DIRECTION('',(1.,0.,0.));
#332=DIRECTION('',(0.,0.,1.));
#333=DIRECTION('center_axis',(0.,-1.,0.));
#334=DIRECTION('ref_axis',(1.,0.,0.));
#335=DIRECTION('',(0.,0.,1.));
#336=DIRECTION('',(-1.,0.,0.));
#337=DIRECTION('',(0.,0.,1.));
#338=DIRECTION('center_axis',(-1.,0.,0.));
#339=DIRECTION('ref_axis',(0.,-1.,0.));
#340=DIRECTION('',(0.,0.,1.));
#341=DIRECTION('',(0.,1.,0.));
#342=DIRECTION('center_axis',(1.,0.,0.));
#343=DIRECTION('ref_axis',(0.,0.,-1.));
#344=DIRECTION('',(0.,0.,1.));
#345=DIRECTION('',(0.,1.,0.));
#346=DIRECTION('',(0.,0.,-1.));
#347=DIRECTION('center_axis',(0.,1.,0.));
#348=DIRECTION('ref_axis',(0.,0.,1.));
#349=DIRECTION('',(-1.,0.,0.));
#350=DIRECTION('center_axis',(0.,0.,-1.));
#351=DIRECTION('ref_axis',(0.685241545305093,-0.72831588242183,0.));
#352=DIRECTION('center_axis',(0.,0.,1.));
#353=DIRECTION('ref_axis',(-1.,-3.1641356201817E-15,0.));
#354=DIRECTION('center_axis',(1.,0.,0.));
#355=DIRECTION('ref_axis',(0.,1.,0.));
#356=DIRECTION('',(0.,-1.,0.));
#357=DIRECTION('',(0.,0.,1.));
#358=DIRECTION('center_axis',(0.,1.,0.));
#359=DIRECTION('ref_axis',(-1.,0.,0.));
#360=DIRECTION('',(1.,0.,0.));
#361=DIRECTION('center_axis',(0.,0.,1.));
#362=DIRECTION('ref_axis',(1.,0.,0.));
#363=CARTESIAN_POINT('',(0.,0.,0.));
#364=CARTESIAN_POINT('Origin',(19.5949005647289,14.9809837747687,2.));
#365=CARTESIAN_POINT('',(66.5699005647289,-14.1900162252313,2.));
#366=CARTESIAN_POINT('',(66.5699005647289,44.1519837747687,2.));
#367=CARTESIAN_POINT('',(66.5699005647289,0.39548377476873,2.));
#368=CARTESIAN_POINT('',(-27.3800994352711,44.1519837747687,2.));
#369=CARTESIAN_POINT('',(43.0824005647289,44.1519837747687,2.));
#370=CARTESIAN_POINT('',(-27.3800994352711,-14.1900162252313,2.));
#371=CARTESIAN_POINT('',(-27.3800994352711,29.5664837747687,2.));
#372=CARTESIAN_POINT('',(-3.89259943527112,-14.1900162252313,2.));
#373=CARTESIAN_POINT('',(-24.1999986834824,42.1999995037913,2.));
#374=CARTESIAN_POINT('Origin',(-25.5999986834824,42.1999995037913,2.));
#375=CARTESIAN_POINT('',(63.3720084534018,-12.9765167836778,2.));
#376=CARTESIAN_POINT('',(63.3707801514432,-12.9765078027898,2.));
#377=CARTESIAN_POINT('',(41.482840358086,-12.9765078027898,2.));
#378=CARTESIAN_POINT('',(63.3707801514432,-12.9745078027898,2.));
#379=CARTESIAN_POINT('',(63.3707801514432,1.00323798598949,2.));
#380=CARTESIAN_POINT('',(65.3674549597956,-11.0974458221191,2.));
#381=CARTESIAN_POINT('Origin',(64.5658319659542,-12.2452265397411,2.));
#382=CARTESIAN_POINT('',(65.3684549597956,-11.0974458221191,2.));
#383=CARTESIAN_POINT('',(42.4811777622622,-11.0974458221191,2.));
#384=CARTESIAN_POINT('',(65.3684549597956,-11.0981448818993,2.));
#385=CARTESIAN_POINT('',(65.3684549597956,1.00323798598949,2.));
#386=CARTESIAN_POINT('Origin',(64.5658319659542,-12.2452265397411,2.));
#387=CARTESIAN_POINT('Origin',(-25.5999986834824,42.1999995037913,1.20000007450578));
#388=CARTESIAN_POINT('',(-24.1999986834824,42.1999995037913,0.));
#389=CARTESIAN_POINT('',(-24.1999986834824,42.1999995037913,1.20000007450578));
#390=CARTESIAN_POINT('Origin',(-25.5999986834824,42.1999995037913,0.));
#391=CARTESIAN_POINT('Origin',(64.5658319659542,-12.2452265397411,-15.));
#392=CARTESIAN_POINT('',(63.3707801514432,-12.9745078027898,0.));
#393=CARTESIAN_POINT('',(63.3707801514432,-12.9745078027898,1.));
#394=CARTESIAN_POINT('',(65.3674549597956,-11.0974458221191,0.));
#395=CARTESIAN_POINT('Origin',(64.5658319659542,-12.2452265397411,0.));
#396=CARTESIAN_POINT('',(65.3674549597956,-11.0974458221191,1.));
#397=CARTESIAN_POINT('Origin',(63.3707801514432,-12.9745078027898,10.));
#398=CARTESIAN_POINT('',(63.3707801514432,-12.9765078027898,0.));
#399=CARTESIAN_POINT('',(63.3707801514432,-12.9765078027898,-15.));
#400=CARTESIAN_POINT('',(63.3707801514432,1.00323798598949,0.));
#401=CARTESIAN_POINT('Origin',(63.3707801514432,-12.9765078027898,-15.));
#402=CARTESIAN_POINT('',(63.3720084534018,-12.9765167836778,0.));
#403=CARTESIAN_POINT('',(63.3720084534018,-12.9765167836778,1.));
#404=CARTESIAN_POINT('',(63.3720084534018,-12.9765167836778,-15.));
#405=CARTESIAN_POINT('',(41.482840358086,-12.9765078027898,0.));
#406=CARTESIAN_POINT('',(63.3720084534018,-12.9765167836778,1.));
#407=CARTESIAN_POINT('Origin',(-27.3800994352711,-14.1900162252313,0.));
#408=CARTESIAN_POINT('',(-27.3800994352711,-14.1900162252313,0.));
#409=CARTESIAN_POINT('',(-27.3800994352711,-14.1900162252313,1.));
#410=CARTESIAN_POINT('',(66.5699005647289,-14.1900162252313,0.));
#411=CARTESIAN_POINT('',(66.5699005647289,-14.1900162252313,0.));
#412=CARTESIAN_POINT('',(66.5699005647289,-14.1900162252313,0.));
#413=CARTESIAN_POINT('Origin',(-27.3800994352711,44.1519837747687,0.));
#414=CARTESIAN_POINT('',(-27.3800994352711,44.1519837747687,0.));
#415=CARTESIAN_POINT('',(-27.3800994352711,44.1519837747687,0.));
#416=CARTESIAN_POINT('',(-27.3800994352711,-14.1900162252313,0.));
#417=CARTESIAN_POINT('Origin',(65.3684549597956,-12.9745078027898,-15.));
#418=CARTESIAN_POINT('',(65.3684549597956,-11.0974458221191,0.));
#419=CARTESIAN_POINT('',(65.3684549597956,-11.0974458221191,-15.));
#420=CARTESIAN_POINT('',(65.3684549597956,-11.0981448818993,0.));
#421=CARTESIAN_POINT('',(65.3684549597956,1.00323798598949,0.));
#422=CARTESIAN_POINT('',(65.3684549597956,-11.0981448818993,105.));
#423=CARTESIAN_POINT('Origin',(65.3674549597956,-11.0974458221191,0.));
#424=CARTESIAN_POINT('',(42.4811777622622,-11.0974458221191,0.));
#425=CARTESIAN_POINT('Origin',(64.5658319659542,-12.2452265397411,105.));
#426=CARTESIAN_POINT('Origin',(64.5658319659542,-12.2452265397411,0.));
#427=CARTESIAN_POINT('Origin',(66.5699005647289,-14.1900162252313,0.));
#428=CARTESIAN_POINT('',(66.5699005647289,44.1519837747687,0.));
#429=CARTESIAN_POINT('',(66.5699005647289,44.1519837747687,0.));
#430=CARTESIAN_POINT('',(66.5699005647289,44.1519837747687,0.));
#431=CARTESIAN_POINT('Origin',(66.5699005647289,44.1519837747687,0.));
#432=CARTESIAN_POINT('',(-27.3800994352711,44.1519837747687,0.));
#433=CARTESIAN_POINT('Origin',(19.5949005647289,14.9809837747687,0.));
#434=UNCERTAINTY_MEASURE_WITH_UNIT(LENGTH_MEASURE(0.01),#438,
'DISTANCE_ACCURACY_VALUE',
'Maximum model space distance between geometric entities at asserted c
onnectivities');
#435=UNCERTAINTY_MEASURE_WITH_UNIT(LENGTH_MEASURE(0.01),#438,
'DISTANCE_ACCURACY_VALUE',
'Maximum model space distance between geometric entities at asserted c
onnectivities');
#436=(
GEOMETRIC_REPRESENTATION_CONTEXT(3)
GLOBAL_UNCERTAINTY_ASSIGNED_CONTEXT((#434))
GLOBAL_UNIT_ASSIGNED_CONTEXT((#438,#440,#441))
REPRESENTATION_CONTEXT('','3D')
);
#437=(
GEOMETRIC_REPRESENTATION_CONTEXT(3)
GLOBAL_UNCERTAINTY_ASSIGNED_CONTEXT((#435))
GLOBAL_UNIT_ASSIGNED_CONTEXT((#438,#440,#441))
REPRESENTATION_CONTEXT('','3D')
);
#438=(
LENGTH_UNIT()
NAMED_UNIT(*)
SI_UNIT(.MILLI.,.METRE.)
);
#439=(
LENGTH_UNIT()
NAMED_UNIT(*)
SI_UNIT($,.METRE.)
);
#440=(
NAMED_UNIT(*)
PLANE_ANGLE_UNIT()
SI_UNIT($,.RADIAN.)
);
#441=(
NAMED_UNIT(*)
SI_UNIT($,.STERADIAN.)
SOLID_ANGLE_UNIT()
);
#442=SHAPE_DEFINITION_REPRESENTATION(#443,#444);
#443=PRODUCT_DEFINITION_SHAPE('',$,#446);
#444=SHAPE_REPRESENTATION('',(#275),#436);
#445=PRODUCT_DEFINITION_CONTEXT('part definition',#450,'design');
#446=PRODUCT_DEFINITION('2026-03-18-20-09-16-660','base_cover_back(F)',
#447,#445);
#447=PRODUCT_DEFINITION_FORMATION('',$,#452);
#448=PRODUCT_RELATED_PRODUCT_CATEGORY('base_cover_back(F)',
'base_cover_back(F)',(#452));
#449=APPLICATION_PROTOCOL_DEFINITION('international standard',
'automotive_design',2009,#450);
#450=APPLICATION_CONTEXT(
'Core Data for Automotive Mechanical Design Process');
#451=PRODUCT_CONTEXT('part definition',#450,'mechanical');
#452=PRODUCT('2026-03-18-20-09-16-660','base_cover_back(F)',$,(#451));
#453=PRESENTATION_STYLE_ASSIGNMENT((#454));
#454=SURFACE_STYLE_USAGE(.BOTH.,#455);
#455=SURFACE_SIDE_STYLE('',(#456));
#456=SURFACE_STYLE_FILL_AREA(#457);
#457=FILL_AREA_STYLE('Steel - Satin',(#458));
#458=FILL_AREA_STYLE_COLOUR('Steel - Satin',#459);
#459=COLOUR_RGB('Steel - Satin',0.627450980392157,0.627450980392157,0.627450980392157);
ENDSEC;
END-ISO-10303-21;
